<svg xmlns="http://www.w3.org/2000/svg" xmlns:xlink="http://www.w3.org/1999/xlink" width="280" zoomAndPan="magnify" viewBox="0 0 210 41.25" height="55" preserveAspectRatio="xMidYMid meet" version="1.0"><defs><g/><clipPath id="8454e6fda9"><path d="M 30.726562 10.417969 L 97 10.417969 L 97 38.40625 L 30.726562 38.40625 Z M 30.726562 10.417969 " clip-rule="nonzero"/></clipPath><clipPath id="b055228049"><rect x="0" width="196" y="0" height="30"/></clipPath></defs><g clip-path="url(#8454e6fda9)"><path fill="#ffffff" d="M 43.613281 27.515625 C 43.320312 28.023438 43.125 28.421875 42.875 28.773438 C 42.746094 28.953125 42.511719 29.160156 42.328125 29.160156 C 38.527344 29.183594 34.726562 29.171875 30.929688 29.167969 C 30.871094 29.167969 30.816406 29.136719 30.730469 29.109375 L 30.730469 28.035156 L 31.433594 28.035156 C 34.746094 28.035156 38.058594 28.023438 41.371094 28.042969 C 41.855469 28.046875 42.171875 27.917969 42.386719 27.429688 C 42.601562 26.9375 42.839844 26.441406 43.148438 26.011719 C 43.316406 25.769531 43.664062 25.5 43.898438 25.53125 C 44.117188 25.5625 44.40625 25.9375 44.472656 26.214844 C 45.058594 28.585938 45.601562 30.964844 46.15625 33.34375 C 46.214844 33.585938 46.28125 33.824219 46.472656 34.054688 C 46.5 33.902344 46.542969 33.75 46.554688 33.59375 C 47.25 26.144531 47.949219 18.695312 48.652344 11.246094 C 48.679688 10.964844 48.894531 10.558594 49.113281 10.472656 C 49.570312 10.289062 49.800781 10.621094 49.863281 11.125 C 50.082031 12.878906 50.3125 14.636719 50.542969 16.390625 C 51.097656 20.617188 51.65625 24.84375 52.214844 29.066406 C 52.234375 29.214844 52.273438 29.363281 52.335938 29.679688 C 52.523438 29.398438 52.652344 29.230469 52.753906 29.046875 C 53.597656 27.476562 54.425781 25.890625 55.296875 24.335938 C 55.453125 24.050781 55.828125 23.652344 56.011719 23.703125 C 56.277344 23.773438 56.546875 24.167969 56.664062 24.488281 C 57.011719 25.445312 57.308594 26.425781 57.570312 27.414062 C 57.707031 27.914062 57.949219 28.054688 58.402344 28.042969 C 59.621094 28.015625 60.839844 28.035156 62.058594 28.035156 L 96.828125 28.035156 L 96.828125 29.183594 L 96.136719 29.183594 C 83.316406 29.183594 70.492188 29.1875 57.671875 29.195312 C 57.117188 29.195312 56.875 28.980469 56.730469 28.4375 C 56.496094 27.5625 56.207031 26.707031 55.886719 25.675781 C 55.667969 26.019531 55.519531 26.210938 55.40625 26.425781 C 54.542969 28.035156 53.691406 29.65625 52.820312 31.257812 C 52.695312 31.488281 52.492188 31.734375 52.277344 31.824219 C 51.800781 32.023438 51.492188 31.742188 51.40625 31.082031 C 51.035156 28.308594 50.667969 25.535156 50.308594 22.761719 C 50.0625 20.898438 49.8125 19.035156 49.5625 17.171875 C 49.539062 16.988281 49.480469 16.808594 49.4375 16.625 L 49.28125 16.617188 C 49.246094 16.808594 49.191406 16.996094 49.175781 17.191406 C 48.546875 23.875 47.925781 30.5625 47.304688 37.246094 C 47.300781 37.292969 47.296875 37.335938 47.289062 37.378906 C 47.238281 37.761719 47.28125 38.199219 46.75 38.25 C 46.1875 38.304688 46.085938 37.875 45.984375 37.4375 C 45.640625 35.949219 45.296875 34.464844 44.953125 32.976562 C 44.582031 31.382812 44.214844 29.792969 43.84375 28.199219 C 43.804688 28.015625 43.726562 27.847656 43.613281 27.515625 Z M 43.613281 27.515625 " fill-opacity="1" fill-rule="nonzero"/></g><g transform="matrix(1, 0, 0, 1, 7, 2)"><g clip-path="url(#b055228049)"><g fill="#ffffff" fill-opacity="1"><g transform="translate(0.883189, 22.585263)"><g><path d="M 5.984375 -0.328125 L 2.453125 -9.125 C 2.421875 -9.226562 2.390625 -9.347656 2.359375 -9.484375 C 2.328125 -9.617188 2.3125 -9.726562 2.3125 -9.8125 L 2.3125 -17.046875 C 2.3125 -17.140625 2.347656 -17.21875 2.421875 -17.28125 C 2.492188 -17.351562 2.570312 -17.390625 2.65625 -17.390625 L 3.875 -17.390625 C 4.113281 -17.390625 4.234375 -17.273438 4.234375 -17.046875 L 4.234375 -10.1875 C 4.234375 -10.09375 4.242188 -9.976562 4.265625 -9.84375 C 4.296875 -9.707031 4.328125 -9.597656 4.359375 -9.515625 L 7.40625 -1.921875 L 10.265625 -1.921875 L 13.3125 -9.515625 C 13.34375 -9.597656 13.367188 -9.707031 13.390625 -9.84375 C 13.421875 -9.976562 13.4375 -10.09375 13.4375 -10.1875 L 13.4375 -17.046875 C 13.4375 -17.273438 13.554688 -17.390625 13.796875 -17.390625 L 15.015625 -17.390625 C 15.253906 -17.390625 15.375 -17.273438 15.375 -17.046875 L 15.375 -9.8125 C 15.375 -9.726562 15.359375 -9.617188 15.328125 -9.484375 C 15.304688 -9.347656 15.273438 -9.226562 15.234375 -9.125 L 11.71875 -0.328125 C 11.6875 -0.242188 11.617188 -0.164062 11.515625 -0.09375 C 11.410156 -0.03125 11.304688 0 11.203125 0 L 6.46875 0 C 6.363281 0 6.265625 -0.03125 6.171875 -0.09375 C 6.078125 -0.164062 6.015625 -0.242188 5.984375 -0.328125 Z M 5.984375 -0.328125 "/></g></g></g><g fill="#ffffff" fill-opacity="1"><g transform="translate(18.527716, 22.585263)"><g><path d="M 7.890625 -0.359375 L 7.890625 -15.46875 L 2.6875 -15.46875 C 2.445312 -15.46875 2.328125 -15.585938 2.328125 -15.828125 L 2.328125 -17.046875 C 2.328125 -17.273438 2.445312 -17.390625 2.6875 -17.390625 L 15.015625 -17.390625 C 15.253906 -17.390625 15.375 -17.273438 15.375 -17.046875 L 15.375 -15.828125 C 15.375 -15.585938 15.253906 -15.46875 15.015625 -15.46875 L 9.8125 -15.46875 L 9.8125 -0.359375 C 9.8125 -0.253906 9.769531 -0.164062 9.6875 -0.09375 C 9.613281 -0.03125 9.535156 0 9.453125 0 L 8.234375 0 C 8.003906 0 7.890625 -0.117188 7.890625 -0.359375 Z M 7.890625 -0.359375 "/></g></g></g><g fill="#ffffff" fill-opacity="1"><g transform="translate(36.197592, 22.585263)"><g/></g></g><g fill="#ffffff" fill-opacity="1"><g transform="translate(53.842119, 22.585263)"><g><path d="M 3.34375 -17.390625 L 4.5625 -17.390625 C 4.800781 -17.390625 4.921875 -17.273438 4.921875 -17.046875 L 4.921875 -1.921875 L 14.828125 -1.921875 C 14.929688 -1.921875 15.015625 -1.882812 15.078125 -1.8125 C 15.148438 -1.738281 15.1875 -1.660156 15.1875 -1.578125 L 15.1875 -0.359375 C 15.1875 -0.117188 15.066406 0 14.828125 0 L 3.34375 0 C 3.257812 0 3.179688 -0.03125 3.109375 -0.09375 C 3.035156 -0.164062 3 -0.253906 3 -0.359375 L 3 -17.046875 C 3 -17.140625 3.035156 -17.21875 3.109375 -17.28125 C 3.179688 -17.351562 3.257812 -17.390625 3.34375 -17.390625 Z M 3.34375 -17.390625 "/></g></g></g><g fill="#ffffff" fill-opacity="1"><g transform="translate(71.511995, 22.585263)"><g><path d="M 2.65625 -0.359375 L 2.65625 -1.578125 C 2.65625 -1.660156 2.6875 -1.738281 2.75 -1.8125 C 2.820312 -1.882812 2.910156 -1.921875 3.015625 -1.921875 L 7.890625 -1.921875 L 7.890625 -15.46875 L 3.015625 -15.46875 C 2.773438 -15.46875 2.65625 -15.585938 2.65625 -15.828125 L 2.65625 -17.046875 C 2.65625 -17.273438 2.773438 -17.390625 3.015625 -17.390625 L 14.65625 -17.390625 C 14.894531 -17.390625 15.015625 -17.273438 15.015625 -17.046875 L 15.015625 -15.828125 C 15.015625 -15.585938 14.894531 -15.46875 14.65625 -15.46875 L 9.8125 -15.46875 L 9.8125 -1.921875 L 14.65625 -1.921875 C 14.757812 -1.921875 14.84375 -1.882812 14.90625 -1.8125 C 14.976562 -1.738281 15.015625 -1.660156 15.015625 -1.578125 L 15.015625 -0.359375 C 15.015625 -0.117188 14.894531 0 14.65625 0 L 3.015625 0 C 2.773438 0 2.65625 -0.117188 2.65625 -0.359375 Z M 2.65625 -0.359375 "/></g></g></g><g fill="#ffffff" fill-opacity="1"><g transform="translate(89.18187, 22.585263)"><g><path d="M 5.984375 -0.328125 L 2.453125 -9.125 C 2.421875 -9.226562 2.390625 -9.347656 2.359375 -9.484375 C 2.328125 -9.617188 2.3125 -9.726562 2.3125 -9.8125 L 2.3125 -17.046875 C 2.3125 -17.140625 2.347656 -17.21875 2.421875 -17.28125 C 2.492188 -17.351562 2.570312 -17.390625 2.65625 -17.390625 L 3.875 -17.390625 C 4.113281 -17.390625 4.234375 -17.273438 4.234375 -17.046875 L 4.234375 -10.1875 C 4.234375 -10.09375 4.242188 -9.976562 4.265625 -9.84375 C 4.296875 -9.707031 4.328125 -9.597656 4.359375 -9.515625 L 7.40625 -1.921875 L 10.265625 -1.921875 L 13.3125 -9.515625 C 13.34375 -9.597656 13.367188 -9.707031 13.390625 -9.84375 C 13.421875 -9.976562 13.4375 -10.09375 13.4375 -10.1875 L 13.4375 -17.046875 C 13.4375 -17.273438 13.554688 -17.390625 13.796875 -17.390625 L 15.015625 -17.390625 C 15.253906 -17.390625 15.375 -17.273438 15.375 -17.046875 L 15.375 -9.8125 C 15.375 -9.726562 15.359375 -9.617188 15.328125 -9.484375 C 15.304688 -9.347656 15.273438 -9.226562 15.234375 -9.125 L 11.71875 -0.328125 C 11.6875 -0.242188 11.617188 -0.164062 11.515625 -0.09375 C 11.410156 -0.03125 11.304688 0 11.203125 0 L 6.46875 0 C 6.363281 0 6.265625 -0.03125 6.171875 -0.09375 C 6.078125 -0.164062 6.015625 -0.242188 5.984375 -0.328125 Z M 5.984375 -0.328125 "/></g></g></g><g fill="#ffffff" fill-opacity="1"><g transform="translate(106.826397, 22.585263)"><g><path d="M 2.71875 -0.359375 L 2.71875 -17.046875 C 2.71875 -17.273438 2.832031 -17.390625 3.0625 -17.390625 L 14.890625 -17.390625 C 15.117188 -17.390625 15.234375 -17.273438 15.234375 -17.046875 L 15.234375 -15.828125 C 15.234375 -15.585938 15.117188 -15.46875 14.890625 -15.46875 L 4.609375 -15.46875 L 4.609375 -9.65625 L 13.515625 -9.65625 C 13.597656 -9.65625 13.675781 -9.617188 13.75 -9.546875 C 13.832031 -9.472656 13.875 -9.394531 13.875 -9.3125 L 13.875 -8.09375 C 13.875 -7.988281 13.832031 -7.898438 13.75 -7.828125 C 13.675781 -7.765625 13.597656 -7.734375 13.515625 -7.734375 L 4.609375 -7.734375 L 4.609375 -1.921875 L 14.890625 -1.921875 C 14.984375 -1.921875 15.0625 -1.882812 15.125 -1.8125 C 15.195312 -1.738281 15.234375 -1.660156 15.234375 -1.578125 L 15.234375 -0.359375 C 15.234375 -0.117188 15.117188 0 14.890625 0 L 3.0625 0 C 2.832031 0 2.71875 -0.117188 2.71875 -0.359375 Z M 2.71875 -0.359375 "/></g></g></g><g fill="#ffffff" fill-opacity="1"><g transform="translate(124.470924, 22.585263)"><g><path d="M 5.984375 -0.328125 L 2.453125 -9.125 C 2.421875 -9.226562 2.390625 -9.347656 2.359375 -9.484375 C 2.328125 -9.617188 2.3125 -9.726562 2.3125 -9.8125 L 2.3125 -17.046875 C 2.3125 -17.140625 2.347656 -17.21875 2.421875 -17.28125 C 2.492188 -17.351562 2.570312 -17.390625 2.65625 -17.390625 L 3.875 -17.390625 C 4.113281 -17.390625 4.234375 -17.273438 4.234375 -17.046875 L 4.234375 -10.1875 C 4.234375 -10.09375 4.242188 -9.976562 4.265625 -9.84375 C 4.296875 -9.707031 4.328125 -9.597656 4.359375 -9.515625 L 7.40625 -1.921875 L 10.265625 -1.921875 L 13.3125 -9.515625 C 13.34375 -9.597656 13.367188 -9.707031 13.390625 -9.84375 C 13.421875 -9.976562 13.4375 -10.09375 13.4375 -10.1875 L 13.4375 -17.046875 C 13.4375 -17.273438 13.554688 -17.390625 13.796875 -17.390625 L 15.015625 -17.390625 C 15.253906 -17.390625 15.375 -17.273438 15.375 -17.046875 L 15.375 -9.8125 C 15.375 -9.726562 15.359375 -9.617188 15.328125 -9.484375 C 15.304688 -9.347656 15.273438 -9.226562 15.234375 -9.125 L 11.71875 -0.328125 C 11.6875 -0.242188 11.617188 -0.164062 11.515625 -0.09375 C 11.410156 -0.03125 11.304688 0 11.203125 0 L 6.46875 0 C 6.363281 0 6.265625 -0.03125 6.171875 -0.09375 C 6.078125 -0.164062 6.015625 -0.242188 5.984375 -0.328125 Z M 5.984375 -0.328125 "/></g></g></g><g fill="#ffffff" fill-opacity="1"><g transform="translate(142.115451, 22.585263)"><g><path d="M 2.65625 -0.359375 L 2.65625 -1.578125 C 2.65625 -1.660156 2.6875 -1.738281 2.75 -1.8125 C 2.820312 -1.882812 2.910156 -1.921875 3.015625 -1.921875 L 7.890625 -1.921875 L 7.890625 -15.46875 L 3.015625 -15.46875 C 2.773438 -15.46875 2.65625 -15.585938 2.65625 -15.828125 L 2.65625 -17.046875 C 2.65625 -17.273438 2.773438 -17.390625 3.015625 -17.390625 L 14.65625 -17.390625 C 14.894531 -17.390625 15.015625 -17.273438 15.015625 -17.046875 L 15.015625 -15.828125 C 15.015625 -15.585938 14.894531 -15.46875 14.65625 -15.46875 L 9.8125 -15.46875 L 9.8125 -1.921875 L 14.65625 -1.921875 C 14.757812 -1.921875 14.84375 -1.882812 14.90625 -1.8125 C 14.976562 -1.738281 15.015625 -1.660156 15.015625 -1.578125 L 15.015625 -0.359375 C 15.015625 -0.117188 14.894531 0 14.65625 0 L 3.015625 0 C 2.773438 0 2.65625 -0.117188 2.65625 -0.359375 Z M 2.65625 -0.359375 "/></g></g></g><g fill="#ffffff" fill-opacity="1"><g transform="translate(159.785327, 22.585263)"><g><path d="M 2.71875 -0.359375 L 2.71875 -17.046875 C 2.71875 -17.273438 2.832031 -17.390625 3.0625 -17.390625 L 14.890625 -17.390625 C 15.117188 -17.390625 15.234375 -17.273438 15.234375 -17.046875 L 15.234375 -15.828125 C 15.234375 -15.585938 15.117188 -15.46875 14.890625 -15.46875 L 4.609375 -15.46875 L 4.609375 -9.65625 L 13.515625 -9.65625 C 13.597656 -9.65625 13.675781 -9.617188 13.75 -9.546875 C 13.832031 -9.472656 13.875 -9.394531 13.875 -9.3125 L 13.875 -8.09375 C 13.875 -7.988281 13.832031 -7.898438 13.75 -7.828125 C 13.675781 -7.765625 13.597656 -7.734375 13.515625 -7.734375 L 4.609375 -7.734375 L 4.609375 -1.921875 L 14.890625 -1.921875 C 14.984375 -1.921875 15.0625 -1.882812 15.125 -1.8125 C 15.195312 -1.738281 15.234375 -1.660156 15.234375 -1.578125 L 15.234375 -0.359375 C 15.234375 -0.117188 15.117188 0 14.890625 0 L 3.0625 0 C 2.832031 0 2.71875 -0.117188 2.71875 -0.359375 Z M 2.71875 -0.359375 "/></g></g></g><g fill="#ffffff" fill-opacity="1"><g transform="translate(177.429853, 22.585263)"><g><path d="M 14 -17.046875 C 14.019531 -17.128906 14.066406 -17.207031 14.140625 -17.28125 C 14.210938 -17.351562 14.300781 -17.390625 14.40625 -17.390625 L 15.59375 -17.390625 C 15.675781 -17.390625 15.75 -17.351562 15.8125 -17.28125 C 15.882812 -17.207031 15.921875 -17.128906 15.921875 -17.046875 L 14.609375 -0.359375 C 14.609375 -0.253906 14.566406 -0.164062 14.484375 -0.09375 C 14.410156 -0.03125 14.328125 0 14.234375 0 L 12.703125 0 C 12.460938 0 12.285156 -0.0976562 12.171875 -0.296875 L 8.84375 -5.953125 L 5.53125 -0.296875 C 5.40625 -0.0976562 5.226562 0 5 0 L 3.46875 0 C 3.375 0 3.285156 -0.03125 3.203125 -0.09375 C 3.128906 -0.164062 3.09375 -0.253906 3.09375 -0.359375 L 1.78125 -17.046875 C 1.757812 -17.128906 1.78125 -17.207031 1.84375 -17.28125 C 1.914062 -17.351562 2.003906 -17.390625 2.109375 -17.390625 L 3.296875 -17.390625 C 3.398438 -17.390625 3.484375 -17.351562 3.546875 -17.28125 C 3.617188 -17.207031 3.660156 -17.128906 3.671875 -17.046875 L 4.796875 -2.5625 L 7.8125 -7.9375 C 7.925781 -8.132812 8.101562 -8.234375 8.34375 -8.234375 L 9.359375 -8.234375 C 9.597656 -8.234375 9.773438 -8.132812 9.890625 -7.9375 L 12.90625 -2.5625 Z M 14 -17.046875 "/></g></g></g></g></g></svg>